<svg width="1015" height="625" viewBox="0 0 1015 625" fill="none" xmlns="http://www.w3.org/2000/svg">
<g filter="url(#filter0_d_1_488)">
<rect x="19.1387" width="976.58" height="585.94" rx="3.82792" fill="white" shape-rendering="crispEdges"/>
<path d="M74.9235 502.301V484.436H78.606V499.141H86.8169V502.301H74.9235ZM92.3779 502.525C89.8151 502.525 87.9241 500.982 87.9241 498.668C87.9241 496.056 90.0141 494.961 92.6516 494.488L95.9111 493.866V493.667C95.9111 492.547 95.3388 491.851 93.8957 491.851C92.6018 491.851 91.93 492.423 91.6314 493.592L88.3222 492.995C88.9194 490.756 90.9099 488.964 94.0201 488.964C97.3293 488.964 99.3198 490.482 99.3198 493.518V498.867C99.3198 499.564 99.6184 499.788 100.415 499.688V502.301C98.1753 502.624 96.8317 502.176 96.2594 501.082C95.4134 502.002 94.0947 502.525 92.3779 502.525ZM95.9111 497.648V496.304L93.3483 496.827C92.2037 497.051 91.3577 497.424 91.3577 498.469C91.3577 499.365 92.0295 499.887 93.0746 499.887C94.5426 499.887 95.9111 499.116 95.9111 497.648ZM102.354 502.301V489.213H105.837V490.557C106.559 489.711 107.753 488.964 109.42 488.964C112.157 488.964 113.824 490.83 113.824 493.667V502.301H110.341V494.662C110.341 493.194 109.744 492.149 108.251 492.149C107.032 492.149 105.837 493.02 105.837 494.737V502.301H102.354ZM128.685 500.858C128.685 504.814 125.948 507.003 122.066 507.003C118.906 507.003 116.717 505.71 115.97 503.147L119.255 502.201C119.603 503.495 120.623 504.291 122.116 504.291C123.932 504.291 125.201 503.396 125.201 501.231V500.335C124.529 501.231 123.211 501.928 121.569 501.928C117.986 501.928 115.896 499.016 115.896 495.433C115.896 491.875 117.986 488.964 121.569 488.964C123.186 488.964 124.529 489.661 125.201 490.557V489.213H128.685V500.858ZM125.226 495.284C125.226 493.12 124.057 491.9 122.39 491.9C120.499 491.9 119.429 493.244 119.429 495.433C119.429 497.623 120.499 498.967 122.39 498.967C124.057 498.967 125.226 497.772 125.226 495.633V495.284ZM143.578 502.301V500.584C142.857 501.704 141.165 502.574 138.926 502.574C134.248 502.574 130.789 498.842 130.789 493.468C130.789 488.044 134.298 484.162 139.174 484.162C142.981 484.162 145.469 486.178 146.589 489.387L143.081 490.557C142.608 488.541 141.24 487.372 139.224 487.372C136.412 487.372 134.472 489.761 134.472 493.393C134.472 497.026 136.412 499.439 139.274 499.439C141.588 499.439 143.131 497.847 143.28 495.657H138.95V492.547H146.863V502.301H143.578ZM155.459 502.574C151.602 502.574 148.964 499.813 148.964 495.757C148.964 491.9 151.627 488.964 155.334 488.964C159.216 488.964 161.306 491.851 161.306 495.508V496.528H152.323C152.572 498.519 153.767 499.713 155.483 499.713C156.827 499.713 157.897 499.066 158.295 497.797L161.231 498.842C160.286 501.231 158.071 502.574 155.459 502.574ZM155.309 491.751C153.916 491.751 152.871 492.572 152.448 494.165H157.847C157.822 492.871 157.001 491.751 155.309 491.751ZM163.367 502.301V489.213H166.851V490.557C167.572 489.711 168.766 488.964 170.433 488.964C173.17 488.964 174.838 490.83 174.838 493.667V502.301H171.354V494.662C171.354 493.194 170.757 492.149 169.264 492.149C168.045 492.149 166.851 493.02 166.851 494.737V502.301H163.367ZM177.58 487.67V484.436H181.139V487.67H177.58ZM181.114 489.213V502.301H177.63V489.213H181.114ZM195.343 489.213V502.301H191.86V500.957C191.138 501.803 189.993 502.574 188.326 502.574C185.614 502.574 183.873 500.708 183.873 497.872V489.213H187.356V497.101C187.356 498.544 188.003 499.489 189.446 499.489C190.665 499.489 191.86 498.593 191.86 496.901V489.213H195.343ZM196.941 500.086L199.106 497.847C200.027 499.066 201.619 499.838 203.087 499.838C204.232 499.838 205.252 499.439 205.252 498.519C205.252 497.524 204.281 497.399 202.191 497.001C200.076 496.578 197.738 496.031 197.738 493.219C197.738 490.706 199.977 488.939 203.087 488.939C205.426 488.939 207.491 489.91 208.511 491.229L206.496 493.418C205.625 492.298 204.356 491.676 202.988 491.676C201.893 491.676 201.196 492.149 201.196 492.871C201.196 493.717 202.042 493.841 203.659 494.165C205.949 494.637 208.661 495.16 208.661 498.146C208.661 500.883 206.148 502.574 202.988 502.574C200.649 502.574 198.136 501.704 196.941 500.086ZM209.96 502.301V498.27H214.04V502.226C214.04 504.565 212.423 505.958 209.96 505.958V504.117C211.104 504.042 211.677 503.545 211.677 502.475V502.301H209.96ZM225.246 484.436V502.301H221.564V484.436H225.246ZM228.244 502.301V489.213H231.727V490.557C232.449 489.711 233.643 488.964 235.31 488.964C238.047 488.964 239.714 490.83 239.714 493.667V502.301H236.231V494.662C236.231 493.194 235.634 492.149 234.141 492.149C232.921 492.149 231.727 493.02 231.727 494.737V502.301H228.244ZM245.194 495.757C245.194 498.22 246.413 499.638 248.254 499.638C249.698 499.638 250.568 498.643 250.892 497.3L253.903 498.643C253.305 500.783 251.265 502.574 248.23 502.574C244.423 502.574 241.735 499.813 241.735 495.757C241.735 491.726 244.423 488.964 248.23 488.964C251.24 488.964 253.231 490.706 253.853 492.821L250.892 494.214C250.568 492.871 249.698 491.875 248.254 491.875C246.413 491.875 245.194 493.319 245.194 495.757ZM255.276 502.301V498.27H259.357V502.301H255.276Z" fill="#0033FF"/>
<path d="M83.4636 531.698H81.9478V527.174H73.8172V525.933L81.3965 515.208H83.4636V525.842H86.7709V527.174H83.4636V531.698ZM75.5168 525.842H81.9478V516.746L75.5168 525.842ZM97.2127 531.698H95.6969V527.174H87.5664V525.933L95.1457 515.208H97.2127V525.842H100.52V527.174H97.2127V531.698ZM89.266 525.842H95.6969V516.746L89.266 525.842ZM101.619 523.453C101.619 518.423 103.962 514.955 107.729 514.955C111.518 514.955 113.861 518.423 113.861 523.453C113.861 528.483 111.518 531.951 107.729 531.951C103.962 531.951 101.619 528.483 101.619 523.453ZM103.204 523.453C103.204 527.61 104.858 530.527 107.729 530.527C110.6 530.527 112.276 527.61 112.276 523.453C112.276 519.296 110.6 516.379 107.729 516.379C104.858 516.379 103.204 519.296 103.204 523.453ZM134.326 515.208V531.698H132.948L123.325 517.481V531.698H121.763V515.208H123.532L132.765 528.896V515.208H134.326ZM137.878 531.698V529.493H139.922V531.698H137.878ZM156.127 515.208H157.574L161.386 529.31L165.222 515.208H166.807L162.236 531.698H160.651L156.839 517.895L153.026 531.698H151.441L146.848 515.208H148.502L152.337 529.31L156.127 515.208ZM178.313 525.704C178.313 529.424 176.132 531.951 172.916 531.951C169.724 531.951 167.542 529.424 167.542 525.704C167.542 522.006 169.724 519.48 172.916 519.48C176.132 519.48 178.313 522.006 178.313 525.704ZM169.058 525.704C169.058 528.689 170.596 530.619 172.916 530.619C175.236 530.619 176.775 528.689 176.775 525.704C176.775 522.741 175.236 520.789 172.916 520.789C170.596 520.789 169.058 522.741 169.058 525.704ZM182.804 515.208V531.698H181.288V515.208H182.804ZM191.655 515.024V516.402C191.287 516.356 191.081 516.333 190.713 516.333C189.381 516.333 188.669 517.045 188.669 518.699V519.709H191.517V521.018H188.669V531.698H187.153V521.018H185.247V519.709H187.153V518.607C187.153 516.402 188.347 514.955 190.598 514.955C190.989 514.955 191.264 514.978 191.655 515.024ZM198.217 531.951C194.979 531.951 192.797 529.401 192.797 525.704C192.797 522.098 194.956 519.48 198.148 519.48C201.387 519.48 203.086 521.983 203.086 525.313V525.819H194.244C194.29 528.735 195.898 530.596 198.217 530.596C200.032 530.596 201.226 529.585 201.594 528L202.972 528.437C202.329 530.596 200.606 531.951 198.217 531.951ZM198.125 520.812C196.127 520.812 194.657 522.259 194.313 524.624H201.548C201.479 522.649 200.491 520.812 198.125 520.812ZM212.684 524.349V531.698H211.076V515.208H217.14C220.47 515.208 222.629 516.746 222.629 519.778C222.629 522.442 220.861 524.027 218.059 524.303L222.928 531.698H221.067L216.267 524.349H212.684ZM212.684 522.948H217.048C219.574 522.948 221.044 521.822 221.044 519.778C221.044 517.711 219.574 516.609 217.048 516.609H212.684V522.948ZM235.463 525.704C235.463 529.424 233.281 531.951 230.066 531.951C226.873 531.951 224.691 529.424 224.691 525.704C224.691 522.006 226.873 519.48 230.066 519.48C233.281 519.48 235.463 522.006 235.463 525.704ZM226.207 525.704C226.207 528.689 227.746 530.619 230.066 530.619C232.385 530.619 233.924 528.689 233.924 525.704C233.924 522.741 232.385 520.789 230.066 520.789C227.746 520.789 226.207 522.741 226.207 525.704ZM241.309 531.905C239.219 531.905 237.45 530.711 237.45 528.552C237.45 526.094 239.426 525.107 242.411 524.509L245.007 523.981V523.246C245.007 521.684 244.111 520.835 242.388 520.835C240.712 520.835 239.632 521.638 239.242 523.131L237.795 522.695C238.369 520.766 240.115 519.48 242.411 519.48C244.961 519.48 246.523 520.766 246.523 523.154V529.539C246.523 530.412 247.166 530.688 247.992 530.435V531.698C246.27 531.951 245.213 531.469 245.099 530.136C244.41 531.124 242.986 531.905 241.309 531.905ZM245.007 527.725V525.198L242.848 525.658C240.482 526.14 238.966 526.737 238.966 528.483C238.966 529.815 239.931 530.665 241.447 530.665C243.445 530.665 245.007 529.333 245.007 527.725ZM254.733 531.951C251.448 531.951 249.588 529.103 249.588 525.704C249.588 522.305 251.448 519.48 254.733 519.48C256.524 519.48 257.971 520.444 258.683 521.845V515.208H260.199V531.698H258.683V529.562C257.971 530.986 256.524 531.951 254.733 531.951ZM258.706 525.244C258.706 522.029 256.662 520.835 254.985 520.835C252.528 520.835 251.104 522.879 251.104 525.704C251.104 528.529 252.528 530.596 254.985 530.596C256.662 530.596 258.706 529.401 258.706 526.232V525.244ZM267.265 528.138L268.551 527.151C269.516 529.287 271.468 530.527 273.834 530.527C276.176 530.527 278.014 529.287 278.014 527.197C278.014 524.923 275.993 524.486 273.42 523.889C270.756 523.246 268.253 522.557 268.253 519.548C268.253 516.792 270.664 514.955 273.627 514.955C276.521 514.955 278.473 516.356 279.369 518.354L278.106 519.25C277.302 517.527 275.924 516.379 273.604 516.379C271.445 516.379 269.792 517.642 269.792 519.457C269.792 521.432 271.56 521.845 273.972 522.442C276.728 523.131 279.599 523.683 279.599 527.082C279.599 530.045 276.957 531.951 273.811 531.951C270.94 531.951 268.276 530.458 267.265 528.138ZM291.495 519.709V531.698H289.98V529.769C289.291 530.94 288.004 531.951 286.19 531.951C283.595 531.951 282.217 530.159 282.217 527.633V519.709H283.755V527.334C283.755 529.195 284.559 530.527 286.557 530.527C288.234 530.527 289.98 529.218 289.98 527.013V519.709H291.495ZM295.341 531.698V519.709H296.857V521.638C297.546 520.49 298.832 519.48 300.646 519.48C303.242 519.48 304.597 521.271 304.597 523.797V531.698H303.081V524.142C303.081 522.305 302.277 520.903 300.279 520.903C298.602 520.903 296.857 522.236 296.857 524.441V531.698H295.341ZM308.327 531.698V519.709H309.843V521.638C310.532 520.49 311.819 519.48 313.633 519.48C316.228 519.48 317.583 521.271 317.583 523.797V531.698H316.068V524.142C316.068 522.305 315.264 520.903 313.265 520.903C311.589 520.903 309.843 522.236 309.843 524.441V531.698H308.327ZM325.128 533.168C324.416 534.96 323.589 536.016 321.797 536.016C321.361 536.016 321.039 535.97 320.695 535.878V534.523C321.108 534.661 321.384 534.684 321.728 534.684C322.601 534.684 323.13 534.294 323.681 532.938L324.347 531.262L319.845 519.709H321.453L325.151 529.493L328.848 519.709H330.433L325.128 533.168ZM337.459 531.698H336.012L331.441 519.709H333.049L336.77 529.792L340.444 519.709H342.029L337.459 531.698ZM347.085 531.905C344.995 531.905 343.227 530.711 343.227 528.552C343.227 526.094 345.202 525.107 348.188 524.509L350.783 523.981V523.246C350.783 521.684 349.887 520.835 348.165 520.835C346.488 520.835 345.409 521.638 345.018 523.131L343.571 522.695C344.145 520.766 345.891 519.48 348.188 519.48C350.737 519.48 352.299 520.766 352.299 523.154V529.539C352.299 530.412 352.942 530.688 353.769 530.435V531.698C352.046 531.951 350.99 531.469 350.875 530.136C350.186 531.124 348.762 531.905 347.085 531.905ZM350.783 527.725V525.198L348.624 525.658C346.258 526.14 344.742 526.737 344.742 528.483C344.742 529.815 345.707 530.665 347.223 530.665C349.221 530.665 350.783 529.333 350.783 527.725ZM357.73 515.208V531.698H356.214V515.208H357.73ZM366.19 531.951C362.951 531.951 360.77 529.401 360.77 525.704C360.77 522.098 362.928 519.48 366.121 519.48C369.359 519.48 371.059 521.983 371.059 525.313V525.819H362.216C362.262 528.735 363.87 530.596 366.19 530.596C368.004 530.596 369.199 529.585 369.566 528L370.944 528.437C370.301 530.596 368.578 531.951 366.19 531.951ZM366.098 520.812C364.1 520.812 362.63 522.259 362.285 524.624H369.52C369.451 522.649 368.464 520.812 366.098 520.812ZM373.183 531.698V529.493H375.227V531.813C375.227 533.49 374.194 534.523 372.494 534.569V533.65C373.528 533.605 374.102 533.053 374.102 531.882V531.698H373.183ZM384.243 523.453C384.243 527.633 386.586 530.504 389.939 530.504C392.213 530.504 393.866 529.195 394.555 527.013L396.094 527.495C395.13 530.274 392.925 531.951 389.939 531.951C385.736 531.951 382.635 528.483 382.635 523.453C382.635 518.423 385.736 514.955 389.939 514.955C392.925 514.955 395.13 516.632 396.094 519.411L394.555 519.893C393.866 517.711 392.213 516.402 389.939 516.402C386.586 516.402 384.243 519.273 384.243 523.453ZM403.23 515.208H404.976L411.407 531.698H409.776L407.916 526.898H400.29L398.43 531.698H396.799L403.23 515.208ZM404.08 517.045L400.819 525.497H407.364L404.08 517.045ZM417.782 528.115L419.137 527.564C419.619 529.356 420.814 530.573 422.858 530.573C425.522 530.573 427.773 528.023 427.773 523.591C427.773 523.407 427.773 523.2 427.75 522.994C427.038 524.716 425.269 526.117 423.042 526.117C420.033 526.117 417.667 523.706 417.667 520.582C417.667 517.412 420.125 514.955 423.248 514.955C427.474 514.955 429.266 518.768 429.266 523.338C429.266 528.712 426.372 531.951 422.835 531.951C420.056 531.951 418.448 530.412 417.782 528.115ZM419.183 520.513C419.183 522.925 420.929 524.739 423.202 524.739C425.522 524.739 427.336 522.925 427.336 520.513C427.336 518.124 425.545 516.333 423.248 516.333C420.951 516.333 419.183 518.124 419.183 520.513ZM440.313 531.698H438.797V527.174H430.666V525.933L438.246 515.208H440.313V525.842H443.62V527.174H440.313V531.698ZM432.366 525.842H438.797V516.746L432.366 525.842ZM444.719 523.453C444.719 518.423 447.062 514.955 450.829 514.955C454.618 514.955 456.961 518.423 456.961 523.453C456.961 528.483 454.618 531.951 450.829 531.951C447.062 531.951 444.719 528.483 444.719 523.453ZM446.304 523.453C446.304 527.61 447.958 530.527 450.829 530.527C453.7 530.527 455.376 527.61 455.376 523.453C455.376 519.296 453.7 516.379 450.829 516.379C447.958 516.379 446.304 519.296 446.304 523.453ZM464.685 514.955C467.67 514.955 469.829 516.723 469.829 519.25C469.829 520.949 468.819 522.259 467.073 522.879C469.163 523.499 470.679 525.038 470.679 527.151C470.679 530.022 468.176 531.928 464.685 531.928C461.194 531.928 458.69 530.022 458.69 527.151C458.69 525.038 460.183 523.499 462.296 522.879C460.551 522.259 459.54 520.949 459.54 519.25C459.54 516.723 461.699 514.955 464.685 514.955ZM464.685 522.236C466.867 522.236 468.337 521.064 468.337 519.25C468.337 517.458 466.867 516.264 464.685 516.264C462.503 516.264 461.01 517.458 461.01 519.25C461.01 521.064 462.503 522.236 464.685 522.236ZM464.685 523.591C462.066 523.591 460.252 525.015 460.252 527.082C460.252 529.172 462.066 530.619 464.685 530.619C467.28 530.619 469.117 529.172 469.117 527.082C469.117 525.015 467.28 523.591 464.685 523.591ZM474.675 523.797L473.182 523.499L473.894 515.208H482.621V516.609H475.134L474.629 522.373C475.387 521.57 476.581 520.926 478.143 520.926C481.289 520.926 483.425 523.315 483.425 526.416C483.425 529.447 481.037 531.951 477.821 531.951C474.812 531.951 472.631 530.205 472.033 527.151L473.572 526.76C473.963 529.103 475.547 530.573 477.821 530.573C480.141 530.573 481.909 528.781 481.909 526.439C481.909 524.119 480.302 522.259 478.005 522.259C476.466 522.259 475.295 522.948 474.675 523.797Z" fill="black"/>
<path d="M850.58 66.9241C855.198 66.9241 856.911 64.0884 856.911 60.5826C856.911 57.0769 855.206 54.2412 850.58 54.2412C845.955 54.2412 844.25 57.0769 844.25 60.5826C844.25 64.0884 845.955 66.9241 850.58 66.9241Z" fill="#0033FF"/>
<path d="M797.921 54.249H778.709V113.112H797.921C821.652 113.112 828.432 99.5298 828.432 83.6762C828.432 67.8226 821.652 54.249 797.921 54.249ZM798.149 104.057H789.559V63.3035H798.149C811.798 63.3035 817.59 70.0127 817.59 83.6762C817.59 97.3397 811.798 104.049 798.149 104.049V104.057Z" fill="black"/>
<path d="M872.73 68.2884V72.3662H862.336V81.4207H872.73V104.065H855.549V72.3581H832.951V81.4126H845.604V104.057H830.684V113.112H898.484V104.057H882.666V81.4126H898.484V72.3581H882.666V63.3035H898.484V54.249H886.729C879.003 54.249 872.713 60.5496 872.713 68.2884H872.73Z" fill="#0033FF"/>
<path d="M930.708 72.3584L921.669 101.794L912.63 72.3584H901.895L915.004 110.431C916.367 114.395 914.058 117.639 909.873 117.639H905.28V126.694H912.035C917.925 126.694 923.228 122.959 925.218 117.41L941.444 72.3584H930.708Z" fill="black"/>
<path d="M83.6091 285.422V287.474C83.1497 287.382 82.7822 287.351 82.2616 287.351C79.9343 287.351 77.9744 289.434 77.9744 292.465V301.469H75.9532V285.483H77.9744V288.515C78.6787 286.77 80.1793 285.33 82.4454 285.33C82.9047 285.33 83.3335 285.391 83.6091 285.422ZM86.1601 282.207V279.481H88.5181V282.207H86.1601ZM88.3344 285.483V301.469H86.3133V285.483H88.3344ZM93.6736 293.476C93.6736 297.457 95.7866 299.999 98.9102 299.999C101.329 299.999 102.738 298.468 103.198 296.324L105.066 297.09C104.361 299.815 102.156 301.806 98.9102 301.806C94.5617 301.806 91.6525 298.406 91.6525 293.476C91.6525 288.546 94.5617 285.177 98.9102 285.177C102.156 285.177 104.331 287.106 105.035 289.862L103.198 290.628C102.738 288.484 101.329 286.953 98.9102 286.953C95.7866 286.953 93.6736 289.526 93.6736 293.476ZM108.02 301.469V279.481H110.041V288.056C110.96 286.525 112.675 285.177 115.094 285.177C118.555 285.177 120.361 287.566 120.361 290.934V301.469H118.34V291.394C118.34 288.944 117.268 287.076 114.604 287.076C112.369 287.076 110.041 288.852 110.041 291.792V301.469H108.02ZM128.429 301.744C125.642 301.744 123.284 300.152 123.284 297.273C123.284 293.997 125.917 292.68 129.898 291.884L133.359 291.179V290.199C133.359 288.117 132.165 286.984 129.868 286.984C127.632 286.984 126.193 288.056 125.672 290.046L123.743 289.464C124.509 286.892 126.836 285.177 129.898 285.177C133.298 285.177 135.38 286.892 135.38 290.077V298.59C135.38 299.754 136.238 300.121 137.34 299.784V301.469C135.043 301.806 133.635 301.163 133.481 299.386C132.563 300.703 130.664 301.744 128.429 301.744ZM133.359 296.171V292.802L130.48 293.415C127.326 294.058 125.305 294.854 125.305 297.181C125.305 298.958 126.591 300.091 128.612 300.091C131.277 300.091 133.359 298.315 133.359 296.171ZM147.521 285.422V287.474C147.062 287.382 146.694 287.351 146.174 287.351C143.846 287.351 141.886 289.434 141.886 292.465V301.469H139.865V285.483H141.886V288.515C142.591 286.77 144.091 285.33 146.357 285.33C146.817 285.33 147.245 285.391 147.521 285.422ZM155.443 301.806C151.064 301.806 148.584 298.008 148.584 293.476C148.584 288.944 151.064 285.177 155.443 285.177C157.832 285.177 159.761 286.463 160.711 288.331V279.481H162.732V301.469H160.711V298.621C159.761 300.519 157.832 301.806 155.443 301.806ZM160.741 292.864C160.741 288.576 158.016 286.984 155.78 286.984C152.504 286.984 150.605 289.709 150.605 293.476C150.605 297.243 152.504 299.999 155.78 299.999C158.016 299.999 160.741 298.406 160.741 294.18V292.864ZM184.316 298.743C186.214 298.743 188.358 296.569 188.358 292.159C188.358 286.8 184.316 283.462 178.926 283.462C172.771 283.462 167.871 288.301 167.871 294.701C167.871 300.979 172.434 304.807 178.528 304.807C181.223 304.807 183.489 304.194 185.571 302.786L186.398 304.194C184.163 305.787 181.407 306.46 178.528 306.46C171.546 306.46 166.003 302.051 166.003 294.67C166.003 287.504 171.607 281.839 178.957 281.839C185.204 281.839 190.134 285.79 190.134 292.037C190.134 297.549 186.98 300.305 184.101 300.305C182.264 300.305 181.223 299.478 180.947 298.008C180.12 299.509 178.528 300.428 176.691 300.428C174.057 300.428 172.036 298.56 172.036 295.283C172.036 290.996 174.731 287.535 178.222 287.535C180.335 287.535 181.621 288.76 181.958 290.016L182.417 287.749H184.193L182.662 296.171C182.356 298.1 183.03 298.743 184.316 298.743ZM180.978 294.732C181.284 292.986 181.345 292.496 181.345 292.159C181.345 290.536 180.304 289.158 178.528 289.158C175.894 289.158 174.088 291.914 174.088 295.222C174.088 297.426 175.221 298.774 177.089 298.774C179.049 298.774 180.518 297.151 180.978 294.732ZM199.191 301.806C194.812 301.806 192.331 298.008 192.331 293.476C192.331 288.944 194.812 285.177 199.191 285.177C201.579 285.177 203.509 286.463 204.458 288.331V279.481H206.479V301.469H204.458V298.621C203.509 300.519 201.579 301.806 199.191 301.806ZM204.489 292.864C204.489 288.576 201.763 286.984 199.528 286.984C196.251 286.984 194.352 289.709 194.352 293.476C194.352 297.243 196.251 299.999 199.528 299.999C201.763 299.999 204.489 298.406 204.489 294.18V292.864ZM244.729 303.429C243.78 305.817 242.677 307.226 240.289 307.226C239.707 307.226 239.278 307.165 238.819 307.042V305.235C239.37 305.419 239.737 305.45 240.197 305.45C241.36 305.45 242.065 304.929 242.8 303.122L243.688 300.887L237.686 285.483H239.829L244.76 298.529L249.69 285.483H251.803L244.729 303.429ZM250.948 301.469V298.529H253.674V301.469H250.948ZM261.082 301.744C258.295 301.744 255.937 300.152 255.937 297.273C255.937 293.997 258.571 292.68 262.552 291.884L266.012 291.179V290.199C266.012 288.117 264.818 286.984 262.521 286.984C260.286 286.984 258.846 288.056 258.326 290.046L256.396 289.464C257.162 286.892 259.489 285.177 262.552 285.177C265.951 285.177 268.033 286.892 268.033 290.077V298.59C268.033 299.754 268.891 300.121 269.993 299.784V301.469C267.697 301.806 266.288 301.163 266.135 299.386C265.216 300.703 263.317 301.744 261.082 301.744ZM266.012 296.171V292.802L263.134 293.415C259.979 294.058 257.958 294.854 257.958 297.181C257.958 298.958 259.244 300.091 261.266 300.091C263.93 300.091 266.012 298.315 266.012 296.171ZM272.365 282.207V279.481H274.723V282.207H272.365ZM274.54 285.483V301.469H272.519V285.483H274.54Z" fill="black"/>
<path d="M215.783 282.207V279.481H218.141V282.207H215.783ZM209.659 301.469V299.723H215.936V287.229H209.659V285.483H217.957V299.723H224.235V301.469H209.659ZM234.85 301.469H221.345V299.723H226.459V287.229H221.345V285.483H226.459C226.459 280.982 229.399 279.175 232.798 279.175C234.084 279.175 235.186 279.359 236.013 279.604V281.41C235.095 281.165 234.023 280.982 232.828 280.982C230.225 280.982 228.48 282.176 228.48 285.483H235.891V287.229H228.48V299.723H234.85V301.469Z" fill="#0033FF"/>
<path d="M90.3768 331.161H83.6091V337.929H81.7717V331.161H75.0039V329.324H81.7717V322.526H83.6091V329.324H90.3768V331.161ZM100.862 318.606H102.455V338.909H107.936V340.716H94.217V338.909H100.342V323.812H94.5538V322.219L97.708 322.097C99.9742 322.005 100.74 321.086 100.862 318.606ZM127.232 341.053C123.129 341.053 119.821 338.756 119.117 334.407L121.2 333.887C121.689 337.286 124.109 339.215 127.171 339.215C130.325 339.215 132.469 337.378 132.469 334.53C132.469 331.651 130.019 330.12 127.11 330.12H124.599V328.283H127.171C129.897 328.283 131.887 326.813 131.887 324.394C131.887 321.852 130.05 320.259 127.263 320.259C124.323 320.259 122.271 322.097 121.72 325.129L119.791 324.7C120.403 321.056 123.159 318.391 127.294 318.391C131.458 318.391 133.908 320.841 133.908 324.271C133.908 326.782 132.101 328.589 130.203 329.171C132.469 329.722 134.551 331.468 134.551 334.622C134.551 338.297 131.581 341.053 127.232 341.053ZM136.922 329.722C136.922 323.016 139.984 318.391 144.945 318.391C149.906 318.391 152.968 323.016 152.968 329.722C152.968 336.429 149.906 341.053 144.945 341.053C139.984 341.053 136.922 336.429 136.922 329.722ZM139.004 329.722C139.004 335.265 141.209 339.154 144.945 339.154C148.681 339.154 150.886 335.265 150.886 329.722C150.886 324.179 148.681 320.29 144.945 320.29C141.209 320.29 139.004 324.179 139.004 329.722ZM155.246 338.909L162.504 332.846C165.536 330.304 167.557 328.252 167.557 325.282C167.557 322.25 165.536 320.259 162.596 320.259C159.656 320.259 157.635 322.434 157.635 325.19C157.635 326.108 157.849 326.997 158.186 327.823H156.135C155.767 326.874 155.614 326.017 155.614 325.098C155.614 321.362 158.646 318.391 162.627 318.391C166.945 318.391 169.67 321.178 169.67 325.159C169.67 328.742 167.343 331.284 164.158 333.887L158.186 338.848H170.221V340.716H155.246V338.909ZM173.235 332.692V330.855H181.472V332.692H173.235ZM184.25 338.909L191.508 332.846C194.54 330.304 196.561 328.252 196.561 325.282C196.561 322.25 194.54 320.259 191.6 320.259C188.66 320.259 186.639 322.434 186.639 325.19C186.639 326.108 186.853 326.997 187.19 327.823H185.139C184.771 326.874 184.618 326.017 184.618 325.098C184.618 321.362 187.65 318.391 191.631 318.391C195.949 318.391 198.674 321.178 198.674 325.159C198.674 328.742 196.347 331.284 193.162 333.887L187.19 338.848H199.225V340.716H184.25V338.909ZM205.393 330.181L203.433 329.783L204.352 318.728H216.019V320.596H206.036L205.332 328.283C206.373 327.211 207.934 326.353 210.017 326.353C214.212 326.353 217.06 329.538 217.06 333.672C217.06 337.715 213.906 341.053 209.588 341.053C205.576 341.053 202.667 338.725 201.871 334.652L203.953 334.132C204.474 337.255 206.556 339.215 209.588 339.215C212.681 339.215 215.039 336.827 215.039 333.703C215.039 330.61 212.926 328.13 209.833 328.13C207.781 328.13 206.25 329.048 205.393 330.181ZM219.614 329.722C219.614 323.016 222.677 318.391 227.638 318.391C232.599 318.391 235.661 323.016 235.661 329.722C235.661 336.429 232.599 341.053 227.638 341.053C222.677 341.053 219.614 336.429 219.614 329.722ZM221.697 329.722C221.697 335.265 223.901 339.154 227.638 339.154C231.374 339.154 233.578 335.265 233.578 329.722C233.578 324.179 231.374 320.29 227.638 320.29C223.901 320.29 221.697 324.179 221.697 329.722ZM238.031 332.692V330.855H246.269V332.692H238.031ZM256.641 318.391C260.653 318.391 263.501 320.749 263.501 324.118C263.501 326.384 262.123 328.13 259.826 328.956C262.644 329.783 264.665 331.835 264.665 334.652C264.665 338.48 261.327 341.022 256.641 341.022C251.956 341.022 248.618 338.48 248.618 334.652C248.618 331.835 250.639 329.783 253.457 328.956C251.16 328.13 249.782 326.384 249.782 324.118C249.782 320.749 252.63 318.391 256.641 318.391ZM256.641 328.099C259.551 328.099 261.541 326.537 261.541 324.118C261.541 321.729 259.551 320.137 256.641 320.137C253.732 320.137 251.742 321.729 251.742 324.118C251.742 326.537 253.732 328.099 256.641 328.099ZM256.641 329.906C253.181 329.906 250.731 331.804 250.731 334.561C250.731 337.347 253.181 339.277 256.641 339.277C260.102 339.277 262.552 337.347 262.552 334.561C262.552 331.804 260.102 329.906 256.641 329.906ZM266.821 335.939L268.597 335.234C269.24 337.592 270.832 339.246 273.588 339.246C277.141 339.246 280.111 335.847 280.111 329.936C280.111 329.691 280.111 329.416 280.081 329.14C279.131 331.437 276.773 333.305 273.803 333.305C269.791 333.305 266.637 330.09 266.637 325.925C266.637 321.668 269.914 318.422 274.109 318.422C279.744 318.422 282.102 323.475 282.102 329.569C282.102 336.765 278.274 341.053 273.527 341.053C269.852 341.053 267.678 339.032 266.821 335.939ZM268.658 325.833C268.658 329.048 270.985 331.468 274.048 331.468C277.11 331.468 279.529 329.048 279.529 325.833C279.529 322.648 277.171 320.229 274.109 320.229C271.047 320.229 268.658 322.648 268.658 325.833ZM284.839 338.909L292.097 332.846C295.129 330.304 297.15 328.252 297.15 325.282C297.15 322.25 295.129 320.259 292.189 320.259C289.249 320.259 287.228 322.434 287.228 325.19C287.228 326.108 287.442 326.997 287.779 327.823H285.727C285.36 326.874 285.207 326.017 285.207 325.098C285.207 321.362 288.239 318.391 292.22 318.391C296.538 318.391 299.263 321.178 299.263 325.159C299.263 328.742 296.936 331.284 293.751 333.887L287.779 338.848H299.814V340.716H284.839V338.909ZM318.047 323.505L316.271 324.24C315.628 321.852 314.036 320.229 311.28 320.229C307.727 320.229 304.757 323.628 304.757 329.538C304.757 329.783 304.757 330.059 304.787 330.334C305.737 328.038 308.095 326.17 311.065 326.17C315.077 326.17 318.231 329.385 318.231 333.55C318.231 337.776 314.954 341.053 310.759 341.053C305.124 341.053 302.766 335.969 302.766 329.875C302.766 322.709 306.594 318.391 311.341 318.391C315.016 318.391 317.19 320.443 318.047 323.505ZM316.21 333.642C316.21 330.426 313.883 328.007 310.82 328.007C307.758 328.007 305.339 330.426 305.339 333.642C305.339 336.827 307.697 339.215 310.759 339.215C313.821 339.215 316.21 336.827 316.21 333.642Z" fill="black"/>
<path d="M76.5963 160.427C76.5963 165.652 79.5247 169.241 83.7163 169.241C86.5585 169.241 88.6256 167.604 89.4868 164.877L91.4104 165.48C90.2046 168.953 87.4485 171.049 83.7163 171.049C78.4624 171.049 74.5867 166.714 74.5867 160.427C74.5867 154.139 78.4624 149.804 83.7163 149.804C87.4485 149.804 90.2046 151.9 91.4104 155.374L89.4868 155.977C88.6256 153.249 86.5585 151.613 83.7163 151.613C79.5247 151.613 76.5963 155.202 76.5963 160.427ZM96.6734 161.546V170.733H94.6637V150.12H102.243C106.406 150.12 109.105 152.044 109.105 155.833C109.105 159.164 106.894 161.144 103.391 161.489L109.478 170.733H107.152L101.152 161.546H96.6734ZM96.6734 159.795H102.128C105.286 159.795 107.124 158.388 107.124 155.833C107.124 153.249 105.286 151.871 102.128 151.871H96.6734V159.795ZM111.735 160.427C111.735 154.139 115.64 149.804 120.893 149.804C126.176 149.804 130.052 154.139 130.052 160.427C130.052 166.714 126.176 171.049 120.893 171.049C115.64 171.049 111.735 166.714 111.735 160.427ZM128.042 160.427C128.042 155.202 125.114 151.613 120.893 151.613C116.702 151.613 113.745 155.202 113.745 160.427C113.745 165.652 116.702 169.241 120.893 169.241C125.114 169.241 128.042 165.652 128.042 160.427ZM131.629 170.733V167.977H134.184V170.877C134.184 172.973 132.892 174.265 130.768 174.322V173.174C132.06 173.116 132.778 172.427 132.778 170.963V170.733H131.629ZM145.454 160.427C145.454 165.652 148.382 169.241 152.574 169.241C155.416 169.241 157.483 167.604 158.345 164.877L160.268 165.48C159.062 168.953 156.306 171.049 152.574 171.049C147.32 171.049 143.444 166.714 143.444 160.427C143.444 154.139 147.32 149.804 152.574 149.804C156.306 149.804 159.062 151.9 160.268 155.374L158.345 155.977C157.483 153.249 155.416 151.613 152.574 151.613C148.382 151.613 145.454 155.202 145.454 160.427ZM175.809 163.24C175.809 167.891 173.082 171.049 169.062 171.049C165.072 171.049 162.344 167.891 162.344 163.24C162.344 158.618 165.072 155.46 169.062 155.46C173.082 155.46 175.809 158.618 175.809 163.24ZM164.239 163.24C164.239 166.972 166.163 169.384 169.062 169.384C171.962 169.384 173.886 166.972 173.886 163.24C173.886 159.537 171.962 157.096 169.062 157.096C166.163 157.096 164.239 159.537 164.239 163.24ZM179.174 163.212V161.489H186.897V163.212H179.174ZM197.196 149.89V151.613C196.736 151.556 196.478 151.527 196.019 151.527C194.354 151.527 193.464 152.417 193.464 154.484V155.747H197.024V157.384H193.464V170.733H191.569V157.384H189.186V155.747H191.569V154.369C191.569 151.613 193.062 149.804 195.875 149.804C196.363 149.804 196.708 149.833 197.196 149.89ZM212.088 163.24C212.088 167.891 209.361 171.049 205.342 171.049C201.351 171.049 198.624 167.891 198.624 163.24C198.624 158.618 201.351 155.46 205.342 155.46C209.361 155.46 212.088 158.618 212.088 163.24ZM200.519 163.24C200.519 166.972 202.442 169.384 205.342 169.384C208.241 169.384 210.165 166.972 210.165 163.24C210.165 159.537 208.241 157.096 205.342 157.096C202.442 157.096 200.519 159.537 200.519 163.24ZM227.233 155.747V170.733H225.338V168.322C224.477 169.786 222.869 171.049 220.601 171.049C217.357 171.049 215.635 168.81 215.635 165.652V155.747H217.558V165.279C217.558 167.604 218.563 169.269 221.061 169.269C223.157 169.269 225.338 167.633 225.338 164.877V155.747H227.233ZM232.04 170.733V155.747H233.935V158.159C234.796 156.723 236.404 155.46 238.672 155.46C241.916 155.46 243.61 157.699 243.61 160.857V170.733H241.715V161.288C241.715 158.991 240.71 157.24 238.213 157.24C236.117 157.24 233.935 158.905 233.935 161.661V170.733H232.04ZM253.642 171.049C249.536 171.049 247.211 167.489 247.211 163.24C247.211 158.991 249.536 155.46 253.642 155.46C255.881 155.46 257.69 156.666 258.58 158.417V150.12H260.475V170.733H258.58V168.063C257.69 169.843 255.881 171.049 253.642 171.049ZM258.609 162.666C258.609 158.647 256.054 157.154 253.958 157.154C250.886 157.154 249.106 159.709 249.106 163.24C249.106 166.771 250.886 169.355 253.958 169.355C256.054 169.355 258.609 167.862 258.609 163.901V162.666ZM270.949 171.049C266.901 171.049 264.173 167.862 264.173 163.24C264.173 158.733 266.872 155.46 270.862 155.46C274.91 155.46 277.035 158.589 277.035 162.752V163.384H265.982C266.039 167.03 268.049 169.355 270.949 169.355C273.217 169.355 274.709 168.092 275.169 166.111L276.891 166.657C276.088 169.355 273.934 171.049 270.949 171.049ZM270.834 157.125C268.336 157.125 266.499 158.934 266.068 161.891H275.111C275.025 159.422 273.791 157.125 270.834 157.125ZM287.917 155.69V157.613C287.486 157.527 287.142 157.498 286.654 157.498C284.472 157.498 282.634 159.451 282.634 162.293V170.733H280.74V155.747H282.634V158.589C283.295 156.953 284.701 155.604 286.826 155.604C287.257 155.604 287.659 155.661 287.917 155.69Z" fill="black"/>
<path d="M84.635 229.262V245.225H77.2853V203.998H93.7645C102.952 203.998 108.693 208.304 108.693 216.63C108.693 223.118 105.133 227.253 99.1045 228.688L109.727 245.225H101.344L91.2955 229.262H84.635ZM84.635 222.946H93.3626C98.6452 222.946 101.459 220.649 101.459 216.63C101.459 212.553 98.6452 210.314 93.3626 210.314H84.635V222.946ZM112.738 211.06V203.998H119.858V211.06H112.738ZM119.743 215.08V245.225H112.853V215.08H119.743ZM130.601 230.181C130.601 236.325 133.816 239.885 138.524 239.885C142.199 239.885 144.438 237.473 145.3 234.143L151.214 237.129C149.664 242.009 145.07 245.856 138.524 245.856C129.912 245.856 123.71 239.483 123.71 230.181C123.71 220.879 129.912 214.506 138.524 214.506C145.013 214.506 149.491 218.18 151.099 223.004L145.3 226.162C144.438 222.889 142.199 220.42 138.524 220.42C133.816 220.42 130.601 224.037 130.601 230.181ZM154.002 245.225V203.998H160.892V218.295C162.615 216.286 165.313 214.506 169.218 214.506C175.534 214.506 179.324 218.869 179.324 225.358V245.225H172.433V227.367C172.433 223.635 170.94 220.936 167.151 220.936C164.05 220.936 160.892 223.233 160.892 227.54V245.225H154.002ZM192.959 245.741C187.217 245.741 182.796 242.239 182.796 236.841C182.796 231.1 187.102 228.573 192.902 227.367L201.228 225.645V225.128C201.228 222.257 199.735 220.477 196.06 220.477C192.787 220.477 191.064 221.97 190.261 224.898L183.772 223.405C185.265 218.41 189.686 214.506 196.347 214.506C203.582 214.506 207.946 217.951 207.946 224.898V237.875C207.946 239.598 208.692 240.114 210.587 239.885V245.225C205.591 245.799 202.95 244.823 201.917 242.354C200.022 244.478 196.864 245.741 192.959 245.741ZM201.228 234.602V230.927L194.739 232.305C191.811 232.937 189.629 233.856 189.629 236.554C189.629 238.909 191.351 240.229 193.993 240.229C197.668 240.229 201.228 238.277 201.228 234.602ZM231.214 215.022V221.913C230.353 221.798 229.664 221.74 228.688 221.74C224.324 221.74 220.994 224.554 220.994 229.377V245.225H214.104V215.08H220.994V219.558C222.315 216.745 225.415 214.907 229.262 214.907C230.066 214.907 230.698 214.965 231.214 215.022ZM244.842 245.856C236.401 245.856 231.578 238.736 231.578 230.181C231.578 221.625 236.401 214.506 244.842 214.506C248.746 214.506 251.617 216.056 253.512 218.295V203.998H260.402V245.225H253.512V242.067C251.617 244.306 248.746 245.856 244.842 245.856ZM253.684 229.32C253.684 223.635 250.469 220.535 246.22 220.535C241.224 220.535 238.526 224.439 238.526 230.181C238.526 235.923 241.224 239.827 246.22 239.827C250.469 239.827 253.684 236.669 253.684 231.1V229.32ZM291.74 221.511L302.42 203.998H310.229L295.358 228.229V245.225H288.008V228.229L273.079 203.998H281.06L291.74 221.511ZM314.757 245.741C309.015 245.741 304.594 242.239 304.594 236.841C304.594 231.1 308.9 228.573 314.699 227.367L323.025 225.645V225.128C323.025 222.257 321.532 220.477 317.857 220.477C314.584 220.477 312.862 221.97 312.058 224.898L305.57 223.405C307.063 218.41 311.484 214.506 318.144 214.506C325.379 214.506 329.743 217.951 329.743 224.898V237.875C329.743 239.598 330.489 240.114 332.384 239.885V245.225C327.389 245.799 324.748 244.823 323.714 242.354C321.819 244.478 318.661 245.741 314.757 245.741ZM323.025 234.602V230.927L316.537 232.305C313.608 232.937 311.426 233.856 311.426 236.554C311.426 238.909 313.149 240.229 315.79 240.229C319.465 240.229 323.025 238.277 323.025 234.602ZM335.901 245.225V215.08H342.791V218.295C344.514 216.286 347.213 214.506 351.117 214.506C357.433 214.506 361.223 218.869 361.223 225.358V245.225H354.333V227.367C354.333 223.635 352.84 220.936 349.05 220.936C345.949 220.936 342.791 223.233 342.791 227.54V245.225H335.901Z" fill="black"/>
<path d="M925.477 402.196L941.967 402.196L941.967 403.711L935.536 403.711C936.685 404.4 937.695 405.687 937.695 407.501C937.695 410.096 935.904 411.452 933.377 411.452L925.477 411.452L925.477 409.936L933.033 409.936C934.87 409.936 936.271 409.132 936.271 407.134C936.271 405.457 934.939 403.711 932.734 403.711L925.477 403.711L925.477 402.196ZM928.21 415.021L936.156 415.021L936.156 413.023L937.466 413.023L937.466 415.021L940.934 415.021L940.934 416.514L937.466 416.514L937.466 419.431L936.156 419.431L936.156 416.514L928.439 416.514C927.061 416.514 926.717 417.134 926.717 418.283C926.717 418.765 926.763 419.201 926.901 419.73L925.568 419.73C925.431 419.178 925.362 418.65 925.362 417.984C925.362 416.124 926.051 415.021 928.21 415.021ZM928.21 422.298L936.156 422.298L936.156 420.3L937.466 420.3L937.466 422.298L940.934 422.298L940.934 423.791L937.466 423.791L937.466 426.708L936.156 426.708L936.156 423.791L928.439 423.791C927.061 423.791 926.717 424.411 926.717 425.559C926.717 426.042 926.763 426.478 926.901 427.006L925.568 427.006C925.431 426.455 925.362 425.927 925.362 425.261C925.362 423.4 926.051 422.298 928.21 422.298ZM925.224 434.65C925.224 432.859 926.189 431.412 927.613 430.7L921.342 430.7L921.342 429.184L937.466 429.184L937.466 430.7L935.33 430.7C936.731 431.412 937.695 432.859 937.695 434.65C937.695 437.935 934.87 439.818 931.471 439.818C928.072 439.818 925.224 437.935 925.224 434.65ZM931.93 430.677L930.943 430.677C927.773 430.677 926.579 432.721 926.579 434.398C926.579 436.855 928.646 438.279 931.471 438.279C934.296 438.279 936.34 436.855 936.34 434.398C936.34 432.721 935.146 430.677 931.93 430.677ZM928.21 440.869L929.014 442.11C927.429 442.684 926.51 444.246 926.51 445.945C926.51 447.507 927.268 448.908 928.761 448.908C930.277 448.908 930.529 447.645 930.966 445.601C931.448 443.58 931.839 441.604 934.204 441.604C936.294 441.604 937.695 443.419 937.695 445.784C937.695 447.966 936.547 449.643 935.031 450.217L934.25 449.046C935.559 448.518 936.409 447.392 936.409 445.715C936.409 444.131 935.605 443.074 934.296 443.074C932.964 443.074 932.711 444.292 932.298 446.083C931.793 448.196 931.379 450.378 928.876 450.378C926.694 450.378 925.224 448.403 925.224 445.945C925.224 443.809 926.189 441.673 928.21 440.869ZM934.112 452.273L936.317 452.273L936.317 454.317L934.112 454.317L934.112 452.273ZM925.477 452.273L927.681 452.273L927.681 454.317L925.477 454.317L925.477 452.273ZM923.226 455.505L942.427 462.165L942.427 463.727L923.226 457.066L923.226 455.505ZM923.226 460.673L942.427 467.334L942.427 468.895L923.226 462.235L923.226 460.673ZM925.224 473.226C925.224 469.942 928.072 468.082 931.471 468.082C934.87 468.082 937.695 469.942 937.695 473.226C937.695 475.018 936.731 476.465 935.33 477.177L941.967 477.177L941.967 478.693L925.477 478.693L925.477 477.177L927.613 477.177C926.189 476.465 925.224 475.018 925.224 473.226ZM931.93 477.2C935.146 477.2 936.34 475.156 936.34 473.479C936.34 471.021 934.296 469.597 931.471 469.597C928.646 469.597 926.579 471.021 926.579 473.479C926.579 475.156 927.773 477.2 930.943 477.2L931.93 477.2ZM924.007 507.38C922.215 506.668 921.159 505.841 921.159 504.05C921.159 503.613 921.205 503.292 921.296 502.947L922.652 502.947C922.514 503.361 922.491 503.636 922.491 503.981C922.491 504.853 922.881 505.382 924.236 505.933L925.913 506.599L937.466 502.097L937.466 503.705L927.681 507.403L937.466 511.101L937.466 512.685L924.007 507.38ZM925.477 512.044L927.681 512.044L927.681 514.088L925.477 514.088L925.477 512.044ZM925.27 519.645C925.27 517.555 926.464 515.786 928.623 515.786C931.081 515.786 932.068 517.761 932.665 520.747L933.194 523.342L933.929 523.342C935.49 523.342 936.34 522.447 936.34 520.724C936.34 519.047 935.536 517.968 934.043 517.578L934.48 516.131C936.409 516.705 937.695 518.45 937.695 520.747C937.695 523.296 936.409 524.858 934.02 524.858L927.636 524.858C926.763 524.858 926.487 525.501 926.74 526.328L925.477 526.328C925.224 524.606 925.706 523.549 927.038 523.434C926.051 522.745 925.27 521.321 925.27 519.645ZM929.45 523.342L931.976 523.342L931.517 521.183C931.035 518.818 930.438 517.302 928.692 517.302C927.36 517.302 926.51 518.267 926.51 519.782C926.51 521.781 927.842 523.342 929.45 523.342ZM939.923 528.107L941.967 528.107L941.967 529.876L939.923 529.876L939.923 528.107ZM937.466 529.738L925.477 529.738L925.477 528.222L937.466 528.222L937.466 529.738Z" fill="black"/>
<path d="M939.923 485.671L941.967 485.671L941.967 487.439L939.923 487.439L939.923 485.671ZM925.477 481.077L926.786 481.077L926.786 485.785L936.156 485.785L936.156 481.077L937.466 481.077L937.466 487.301L926.786 487.301L926.786 492.01L925.477 492.01L925.477 481.077ZM925.477 499.97L925.477 489.842L926.786 489.842L926.786 493.677L936.156 493.677L936.156 489.842L937.466 489.842L937.466 493.677C940.842 493.677 942.197 495.882 942.197 498.432C942.197 499.396 942.059 500.223 941.875 500.843L940.52 500.843C940.704 500.154 940.842 499.35 940.842 498.455C940.842 496.502 939.946 495.193 937.466 495.193L937.466 500.751L936.156 500.751L936.156 495.193L926.786 495.193L926.786 499.97L925.477 499.97Z" fill="#0033FF"/>
</g>
<defs>
<filter id="filter0_d_1_488" x="-0.00094223" y="0" width="1014.86" height="624.22" filterUnits="userSpaceOnUse" color-interpolation-filters="sRGB">
<feFlood flood-opacity="0" result="BackgroundImageFix"/>
<feColorMatrix in="SourceAlpha" type="matrix" values="0 0 0 0 0 0 0 0 0 0 0 0 0 0 0 0 0 0 127 0" result="hardAlpha"/>
<feOffset dy="19.1396"/>
<feGaussianBlur stdDeviation="9.56981"/>
<feComposite in2="hardAlpha" operator="out"/>
<feColorMatrix type="matrix" values="0 0 0 0 0 0 0 0 0 0 0 0 0 0 0 0 0 0 0.1 0"/>
<feBlend mode="normal" in2="BackgroundImageFix" result="effect1_dropShadow_1_488"/>
<feBlend mode="normal" in="SourceGraphic" in2="effect1_dropShadow_1_488" result="shape"/>
</filter>
</defs>
</svg>
